<?xml version="1.0" encoding="utf-8"?>
<!-- Generator: Adobe Illustrator 15.0.2, SVG Export Plug-In . SVG Version: 6.00 Build 0)  -->
<!DOCTYPE svg PUBLIC "-//W3C//DTD SVG 1.1//EN" "http://www.w3.org/Graphics/SVG/1.1/DTD/svg11.dtd">
<svg version="1.1" id="Capa_1" xmlns="http://www.w3.org/2000/svg" xmlns:xlink="http://www.w3.org/1999/xlink" x="0px" y="0px"
	 width="200px" height="74px" viewBox="0 0 200 74" enable-background="new 0 0 200 74" xml:space="preserve">
<path id="_149991056" fill="#1F1A17" stroke="#CCCCCC" stroke-width="0.25" d="M71.557,66.152V7.716h-0.002V7.702
	c-0.146-0.152-0.54-0.469-0.909-0.417v0.431h-0.002v58.438h0.002v0.07c0.146,0.153,0.54,0.471,0.909,0.418v-0.488h0.002V66.152z"/>
<g>
	<path fill="#0086CA" stroke="#0086CA" stroke-width="2" stroke-miterlimit="10" d="M83.021,34.737V11.831h12.672v2.703H85.505
		v7.094h8.813v2.703h-8.813v10.406H83.021z"/>
	<path fill="#0086CA" stroke="#0086CA" stroke-width="2" stroke-miterlimit="10" d="M102.252,34.737V11.831h12.672v2.703h-10.187
		v7.094h8.813v2.703h-8.813v10.406H102.252z"/>
	<path fill="#0086CA" stroke="#0086CA" stroke-width="2" stroke-miterlimit="10" d="M121.484,34.737V11.831h12.672v2.703h-10.188
		v7.094h8.813v2.703h-8.813v10.406H121.484z"/>
	<path fill="#0086CA" stroke="#0086CA" stroke-width="2" stroke-miterlimit="10" d="M141.012,34.737V11.831h2.484v22.906H141.012z"
		/>
	<path fill="#0086CA" stroke="#0086CA" stroke-width="2" stroke-miterlimit="10" d="M151.024,34.737V11.831h8.328
		c1.739,0,3.022,0.214,3.853,0.641c0.828,0.427,1.508,1.137,2.039,2.131c0.53,0.994,0.797,2.147,0.797,3.459
		c0,1.728-0.451,3.128-1.353,4.2c-0.901,1.072-2.211,1.754-3.931,2.046c0.697,0.419,1.229,0.844,1.595,1.273
		c0.739,0.875,1.392,1.849,1.953,2.922l3.28,6.234h-3.125l-2.504-4.763c-0.972-1.863-1.703-3.119-2.197-3.766
		s-0.973-1.082-1.436-1.307c-0.465-0.225-1.111-0.337-1.943-0.337h-2.873v10.172L151.024,34.737L151.024,34.737z M153.508,21.94
		h5.345c1.166,0,2.052-0.141,2.655-0.422c0.604-0.281,1.084-0.724,1.438-1.328s0.531-1.308,0.531-2.109
		c0-1.156-0.339-2.065-1.017-2.727c-0.678-0.661-1.683-0.992-3.016-0.992h-5.938V21.94L153.508,21.94z"/>
</g>
<g id="cuadraditos">
	<g>
		<path fill="none" stroke="#CCCCCC" stroke-width="0.75" d="M42.445,32.5"/>
		<polyline fill="none" stroke="#CCCCCC" stroke-width="0.75" points="49.763,27.123 49.763,32.5 44.877,32.5 		"/>
		<path fill="none" stroke="#CCCCCC" stroke-width="0.75" d="M49.763,24.712"/>
		<polyline fill="none" stroke="#CCCCCC" stroke-width="0.75" points="42.445,16.316 42.445,15.564 49.763,15.564 49.763,19.457 		
			"/>
		<rect x="42.445" y="43.009" fill="none" stroke="#CCCCCC" stroke-width="0.75" width="7.318" height="7.787"/>
		<polyline fill="none" stroke="#CCCCCC" stroke-width="0.75" points="43.393,33.86 49.763,33.86 49.763,41.648 42.445,41.648 
			42.445,35.036 		"/>
		<rect x="42.445" y="52.297" fill="none" stroke="#CCCCCC" stroke-width="0.75" width="7.318" height="7.788"/>
	</g>
	<g>
		<polyline fill="none" stroke="#CCCCCC" stroke-width="0.75" points="37.854,43.009 40.474,43.009 40.474,50.796 34.862,50.796 		
			"/>
		<path fill="none" stroke="#CCCCCC" stroke-width="0.75" d="M33.156,41.648"/>
		<polyline fill="none" stroke="#CCCCCC" stroke-width="0.75" points="40.474,37.88 40.474,41.648 38.621,41.648 		"/>
		<path fill="none" stroke="#CCCCCC" stroke-width="0.75" d="M40.474,33.86"/>
		<polyline fill="none" stroke="#CCCCCC" stroke-width="0.75" points="34.417,52.297 40.474,52.297 40.474,60.085 33.156,60.085 
			33.156,59.119 		"/>
	</g>
	<g>
		<path fill="none" stroke="#CCCCCC" stroke-width="0.75" d="M31.748,32.5"/>
		<polyline fill="none" stroke="#CCCCCC" stroke-width="0.75" points="27.197,32.5 24.43,32.5 24.43,24.712 27.37,24.712 		"/>
		<polyline fill="none" stroke="#CCCCCC" stroke-width="0.75" points="27.494,23.352 24.43,23.352 24.43,15.564 29.323,15.564 		"/>
		<polyline fill="none" stroke="#CCCCCC" stroke-width="0.75" points="29.991,50.796 24.43,50.796 24.43,43.009 28.458,43.009 		"/>
		<path fill="none" stroke="#CCCCCC" stroke-width="0.75" d="M31.748,50.796"/>
		<polyline fill="none" stroke="#CCCCCC" stroke-width="0.75" points="28.186,41.648 24.43,41.648 24.43,33.86 27.395,33.86 		"/>
		<path fill="none" stroke="#CCCCCC" stroke-width="0.75" d="M31.748,33.86"/>
		<polyline fill="none" stroke="#CCCCCC" stroke-width="0.75" points="31.748,56.523 31.748,60.085 24.43,60.085 24.43,52.297 
			30.411,52.297 		"/>
	</g>
	<g>
		<polyline fill="none" stroke="#CCCCCC" stroke-width="0.75" points="52.864,24.712 58.724,24.712 58.724,32.5 51.405,32.5 
			51.405,25.738 		"/>
		<polyline fill="none" stroke="#CCCCCC" stroke-width="0.75" points="51.405,19.729 51.405,15.564 58.724,15.564 58.724,23.352 
			54.694,23.352 		"/>
		<rect x="51.405" y="43.009" fill="none" stroke="#CCCCCC" stroke-width="0.75" width="7.318" height="7.787"/>
		<rect x="51.405" y="33.86" fill="none" stroke="#CCCCCC" stroke-width="0.75" width="7.318" height="7.789"/>
	</g>
	<g>
		<rect x="15" y="24.712" fill="none" stroke="#CCCCCC" stroke-width="0.75" width="7.318" height="7.788"/>
		<rect x="15" y="43.009" fill="none" stroke="#CCCCCC" stroke-width="0.75" width="7.318" height="7.787"/>
		<rect x="15" y="33.86" fill="none" stroke="#CCCCCC" stroke-width="0.75" width="7.318" height="7.789"/>
		<rect x="15" y="52.297" fill="none" stroke="#CCCCCC" stroke-width="0.75" width="7.318" height="7.788"/>
	</g>
</g>
<g id="contorno_mapa">
	<g>
		<g>
			<path fill="#0086CA" d="M33.122,9.046c5.708,6.827,15.149,11.789,24.168,10.985c0.149-0.013,0.679-0.206,0.617-0.2
				c-8.941,0.797-18.396-4.205-24.061-10.979C33.752,8.739,33.157,9.088,33.122,9.046L33.122,9.046z"/>
		</g>
	</g>
	<g>
		<g>
			<path fill="#0086CA" d="M33.103,8.594c-11.987,15.511-6.014,37.852-0.897,54.895c-0.253-0.844,1.977-2.455,1.712-3.336
				c-1.894-6.308-3.563-12.631-4.681-19.129c-1.444-8.397-3.489-21.792,2.154-29.092C32.145,10.955,32.354,9.562,33.103,8.594
				L33.103,8.594z"/>
		</g>
	</g>
	<polygon fill="#0086CA" points="33.406,65.369 33.424,62.605 33.936,62.652 34.913,63.885 36.868,65.301 35.708,65.402 	"/>
	<polygon fill="#0086CA" points="41.151,59.746 41.587,59.178 42.116,59.197 41.729,60.639 40.887,60.66 41.364,60.021 	"/>
	<polygon fill="#0086CA" points="42.701,59.197 43.646,59.208 43.575,59.543 43.006,59.959 42.732,60.629 42.468,60.66 	"/>
	<g>
		<g>
			<path fill="#0086CA" d="M33.181,61.509c1.195-16.745,11.092-31.935,25.792-40.035c0.183-0.101-0.169-1.157,0-1.25
				c-14.722,8.113-24.599,23.315-25.794,40.081C33.151,60.68,33.202,61.216,33.181,61.509L33.181,61.509z"/>
		</g>
	</g>
</g>
<g>
	<path fill="#213362" d="M82.417,47.743v-6.058h4.152v1.025h-2.93v1.433h2.528v1.025H83.64v2.574H82.417z"/>
	<path fill="#213362" d="M87.3,45.487c0-0.387,0.096-0.76,0.285-1.119c0.19-0.361,0.459-0.637,0.809-0.827
		c0.348-0.189,0.736-0.284,1.167-0.284c0.663,0,1.207,0.215,1.631,0.646c0.425,0.432,0.637,0.976,0.637,1.635
		c0,0.663-0.214,1.214-0.643,1.65c-0.428,0.437-0.967,0.654-1.617,0.654c-0.402,0-0.786-0.091-1.151-0.272
		c-0.364-0.181-0.642-0.447-0.832-0.8C87.396,46.419,87.3,45.991,87.3,45.487z M88.491,45.55c0,0.435,0.104,0.768,0.31,0.999
		s0.461,0.348,0.765,0.348c0.303,0,0.557-0.116,0.762-0.348s0.309-0.567,0.309-1.008c0-0.43-0.104-0.761-0.309-0.991
		c-0.205-0.232-0.459-0.348-0.762-0.348c-0.304,0-0.559,0.115-0.765,0.348C88.594,44.78,88.491,45.113,88.491,45.55z"/>
	<path fill="#213362" d="M96.729,47.743h-1.162v-2.239c0-0.474-0.024-0.78-0.072-0.92c-0.052-0.139-0.132-0.248-0.242-0.323
		c-0.113-0.078-0.247-0.117-0.404-0.117c-0.199,0-0.382,0.057-0.54,0.166c-0.16,0.11-0.27,0.257-0.329,0.438
		c-0.059,0.182-0.089,0.518-0.089,1.008v1.987h-1.161v-4.389h1.079V44c0.382-0.497,0.865-0.743,1.445-0.743
		c0.257,0,0.49,0.046,0.703,0.137c0.212,0.094,0.372,0.211,0.481,0.354c0.108,0.143,0.185,0.306,0.228,0.487
		c0.042,0.182,0.063,0.441,0.063,0.78V47.743z"/>
	<path fill="#213362" d="M101.931,47.743h-1.078v-0.646c-0.18,0.252-0.391,0.438-0.634,0.561c-0.244,0.123-0.489,0.184-0.737,0.184
		c-0.505,0-0.936-0.202-1.296-0.609c-0.359-0.406-0.539-0.973-0.539-1.7c0-0.743,0.175-1.309,0.524-1.695s0.792-0.58,1.326-0.58
		c0.49,0,0.915,0.203,1.274,0.61v-2.182h1.16V47.743z M98.832,45.454c0,0.469,0.065,0.808,0.194,1.017
		c0.188,0.303,0.449,0.454,0.785,0.454c0.268,0,0.494-0.113,0.682-0.341c0.186-0.228,0.282-0.566,0.282-1.019
		c0-0.504-0.092-0.867-0.272-1.088c-0.183-0.222-0.415-0.334-0.699-0.334c-0.276,0-0.507,0.11-0.691,0.329
		C98.924,44.691,98.832,45.02,98.832,45.454z"/>
	<path fill="#213362" d="M102.808,45.487c0-0.387,0.094-0.76,0.285-1.119c0.189-0.361,0.457-0.637,0.807-0.827
		c0.348-0.189,0.736-0.284,1.168-0.284c0.662,0,1.207,0.215,1.631,0.646c0.424,0.432,0.637,0.976,0.637,1.635
		c0,0.663-0.215,1.214-0.643,1.65s-0.969,0.654-1.617,0.654c-0.402,0-0.785-0.091-1.15-0.272c-0.365-0.181-0.643-0.447-0.832-0.8
		C102.901,46.419,102.808,45.991,102.808,45.487z M103.995,45.55c0,0.435,0.105,0.768,0.311,0.999
		c0.207,0.231,0.461,0.348,0.766,0.348c0.303,0,0.557-0.116,0.762-0.348s0.307-0.567,0.307-1.008c0-0.43-0.102-0.761-0.307-0.991
		c-0.205-0.232-0.459-0.348-0.762-0.348c-0.305,0-0.559,0.115-0.766,0.348C104.101,44.78,103.995,45.113,103.995,45.55z"/>
	<path fill="#213362" d="M110.61,47.743v-6.058h4.152v1.025h-2.928v1.433h2.527v1.025h-2.527v2.574H110.61z"/>
	<path fill="#213362" d="M115.763,42.761v-1.075h1.162v1.075H115.763z M115.763,47.743v-4.389h1.162v4.389H115.763z"/>
	<path fill="#213362" d="M122.138,47.743h-1.078v-0.646c-0.18,0.252-0.389,0.438-0.635,0.561c-0.242,0.123-0.488,0.184-0.736,0.184
		c-0.504,0-0.936-0.202-1.295-0.609c-0.361-0.406-0.539-0.973-0.539-1.7c0-0.743,0.174-1.309,0.523-1.695s0.793-0.58,1.326-0.58
		c0.49,0,0.916,0.203,1.273,0.61v-2.182h1.16V47.743z M119.038,45.454c0,0.469,0.064,0.808,0.195,1.017
		c0.188,0.303,0.449,0.454,0.785,0.454c0.268,0,0.494-0.113,0.682-0.341s0.281-0.566,0.281-1.019c0-0.504-0.092-0.867-0.273-1.088
		c-0.18-0.222-0.414-0.334-0.699-0.334c-0.273,0-0.504,0.11-0.689,0.329C119.132,44.691,119.038,45.02,119.038,45.454z"/>
	<path fill="#213362" d="M126.171,47.743v-0.657c-0.16,0.234-0.369,0.419-0.631,0.554c-0.26,0.135-0.535,0.202-0.824,0.202
		c-0.295,0-0.559-0.064-0.793-0.194c-0.234-0.129-0.402-0.312-0.508-0.545s-0.156-0.558-0.156-0.971v-2.777h1.16v2.017
		c0,0.617,0.021,0.996,0.063,1.135c0.045,0.139,0.121,0.249,0.234,0.33s0.258,0.122,0.43,0.122c0.199,0,0.377-0.055,0.533-0.164
		c0.158-0.108,0.266-0.243,0.322-0.403c0.059-0.161,0.086-0.557,0.086-1.185v-1.852h1.162v4.389H126.171z"/>
	<path fill="#213362" d="M132.278,44.652l-1.146,0.207c-0.039-0.229-0.125-0.4-0.262-0.517s-0.313-0.174-0.531-0.174
		c-0.289,0-0.52,0.101-0.691,0.3s-0.258,0.533-0.258,1.002c0,0.521,0.086,0.888,0.262,1.103s0.41,0.323,0.705,0.323
		c0.221,0,0.4-0.063,0.539-0.188c0.143-0.126,0.242-0.341,0.299-0.646l1.141,0.193c-0.119,0.524-0.346,0.919-0.682,1.187
		s-0.787,0.4-1.352,0.4c-0.641,0-1.152-0.202-1.535-0.606c-0.381-0.405-0.572-0.966-0.572-1.682c0-0.726,0.191-1.289,0.574-1.692
		c0.383-0.404,0.902-0.604,1.555-0.604c0.533,0,0.959,0.115,1.273,0.344C131.913,43.83,132.138,44.182,132.278,44.652z"/>
	<path fill="#213362" d="M133.157,42.761v-1.075h1.16v1.075H133.157z M133.157,47.743v-4.389h1.16v4.389H133.157z"/>
	<path fill="#213362" d="M136.376,44.693l-1.055-0.189c0.119-0.425,0.322-0.738,0.611-0.942c0.289-0.203,0.719-0.305,1.289-0.305
		c0.52,0,0.904,0.061,1.158,0.183c0.254,0.123,0.432,0.278,0.535,0.468c0.102,0.188,0.154,0.534,0.154,1.039l-0.012,1.354
		c0,0.387,0.018,0.67,0.057,0.854c0.035,0.183,0.105,0.38,0.207,0.589h-1.148c-0.031-0.077-0.066-0.192-0.111-0.344
		c-0.018-0.068-0.033-0.113-0.041-0.136c-0.197,0.192-0.412,0.338-0.637,0.434c-0.227,0.097-0.467,0.145-0.723,0.145
		c-0.453,0-0.809-0.121-1.068-0.367c-0.262-0.245-0.391-0.555-0.391-0.93c0-0.248,0.059-0.47,0.178-0.663
		c0.117-0.194,0.285-0.343,0.498-0.446c0.213-0.103,0.521-0.193,0.924-0.271c0.543-0.102,0.918-0.196,1.127-0.285v-0.116
		c0-0.223-0.055-0.382-0.166-0.478c-0.109-0.095-0.316-0.143-0.623-0.143c-0.207,0-0.367,0.042-0.482,0.122
		C136.54,44.348,136.448,44.49,136.376,44.693z M137.929,45.636c-0.148,0.05-0.385,0.108-0.707,0.178
		c-0.322,0.068-0.533,0.137-0.631,0.202c-0.152,0.108-0.227,0.244-0.227,0.409c0,0.162,0.061,0.303,0.182,0.422
		c0.121,0.118,0.273,0.177,0.463,0.177c0.207,0,0.408-0.068,0.598-0.206c0.141-0.104,0.232-0.232,0.277-0.385
		c0.031-0.099,0.045-0.286,0.045-0.565V45.636z"/>
	<path fill="#213362" d="M141.325,47.743h-1.16v-4.389h1.078v0.625c0.184-0.296,0.35-0.49,0.496-0.583
		c0.148-0.093,0.314-0.14,0.504-0.14c0.264,0,0.518,0.072,0.764,0.218l-0.359,1.012c-0.195-0.125-0.377-0.188-0.545-0.188
		c-0.164,0-0.301,0.045-0.414,0.134s-0.201,0.252-0.266,0.484c-0.064,0.234-0.098,0.726-0.098,1.472V47.743z"/>
	<path fill="#213362" d="M143.507,42.761v-1.075h1.16v1.075H143.507z M143.507,47.743v-4.389h1.16v4.389H143.507z"/>
	<path fill="#213362" d="M145.589,45.487c0-0.387,0.096-0.76,0.285-1.119c0.189-0.361,0.459-0.637,0.809-0.827
		c0.348-0.189,0.736-0.284,1.168-0.284c0.662,0,1.205,0.215,1.631,0.646c0.424,0.432,0.637,0.976,0.637,1.635
		c0,0.663-0.215,1.214-0.645,1.65c-0.428,0.437-0.967,0.654-1.615,0.654c-0.404,0-0.787-0.091-1.152-0.272
		c-0.365-0.181-0.643-0.447-0.832-0.8C145.685,46.419,145.589,45.991,145.589,45.487z M146.778,45.55
		c0,0.435,0.104,0.768,0.311,0.999s0.461,0.348,0.766,0.348c0.301,0,0.557-0.116,0.762-0.348s0.307-0.567,0.307-1.008
		c0-0.43-0.102-0.761-0.307-0.991c-0.205-0.232-0.461-0.348-0.762-0.348c-0.305,0-0.559,0.115-0.766,0.348
		C146.882,44.78,146.778,45.113,146.778,45.55z"/>
	<path fill="#213362" d="M153.394,47.743v-6.058h4.152v1.025h-2.928v1.433h2.527v1.025h-2.527v2.574H153.394z"/>
	<path fill="#213362" d="M161.087,46.347l1.156,0.193c-0.148,0.425-0.383,0.748-0.705,0.97c-0.32,0.222-0.721,0.332-1.203,0.332
		c-0.764,0-1.328-0.249-1.695-0.747c-0.289-0.399-0.432-0.904-0.432-1.513c0-0.727,0.189-1.297,0.568-1.708
		c0.381-0.412,0.861-0.617,1.443-0.617c0.652,0,1.168,0.215,1.545,0.646c0.377,0.432,0.557,1.092,0.541,1.98h-2.908
		c0.008,0.346,0.102,0.613,0.279,0.805c0.18,0.191,0.404,0.287,0.67,0.287c0.182,0,0.336-0.05,0.459-0.149
		C160.929,46.727,161.022,46.567,161.087,46.347z M161.153,45.173c-0.01-0.336-0.096-0.591-0.262-0.766
		c-0.164-0.175-0.365-0.264-0.604-0.264c-0.252,0-0.461,0.094-0.627,0.278c-0.164,0.184-0.246,0.435-0.244,0.751H161.153z"/>
	<path fill="#213362" d="M167.276,47.743h-1.08v-0.646c-0.178,0.252-0.389,0.438-0.633,0.561c-0.242,0.123-0.49,0.184-0.738,0.184
		c-0.504,0-0.936-0.202-1.295-0.609c-0.359-0.406-0.539-0.973-0.539-1.7c0-0.743,0.174-1.309,0.523-1.695s0.793-0.58,1.328-0.58
		c0.488,0,0.914,0.203,1.271,0.61v-2.182h1.162V47.743z M164.177,45.454c0,0.469,0.064,0.808,0.195,1.017
		c0.188,0.303,0.447,0.454,0.783,0.454c0.268,0,0.494-0.113,0.682-0.341c0.189-0.228,0.281-0.566,0.281-1.019
		c0-0.504-0.09-0.867-0.271-1.088c-0.182-0.222-0.414-0.334-0.699-0.334c-0.275,0-0.506,0.11-0.691,0.329
		S164.177,45.02,164.177,45.454z"/>
	<path fill="#213362" d="M170.962,46.347l1.156,0.193c-0.148,0.425-0.383,0.748-0.705,0.97c-0.32,0.222-0.723,0.332-1.203,0.332
		c-0.764,0-1.328-0.249-1.693-0.747c-0.291-0.399-0.436-0.904-0.436-1.513c0-0.727,0.189-1.297,0.57-1.708
		c0.379-0.412,0.861-0.617,1.441-0.617c0.654,0,1.168,0.215,1.547,0.646c0.377,0.432,0.557,1.092,0.541,1.98h-2.91
		c0.008,0.346,0.102,0.613,0.281,0.805c0.182,0.191,0.402,0.287,0.67,0.287c0.182,0,0.336-0.05,0.457-0.149
		C170.806,46.727,170.897,46.567,170.962,46.347z M171.028,45.173c-0.01-0.336-0.096-0.591-0.262-0.766s-0.365-0.264-0.604-0.264
		c-0.254,0-0.461,0.094-0.627,0.278c-0.166,0.184-0.248,0.435-0.244,0.751H171.028z"/>
	<path fill="#213362" d="M174.237,47.743h-1.162v-4.389h1.08v0.625c0.184-0.296,0.35-0.49,0.498-0.583
		c0.146-0.093,0.314-0.14,0.502-0.14c0.264,0,0.52,0.072,0.764,0.218l-0.359,1.012c-0.195-0.125-0.377-0.188-0.547-0.188
		c-0.162,0-0.299,0.045-0.412,0.134s-0.201,0.252-0.266,0.484c-0.064,0.234-0.098,0.726-0.098,1.472V47.743z"/>
	<path fill="#213362" d="M177.286,44.693l-1.053-0.189c0.117-0.425,0.322-0.738,0.611-0.942c0.289-0.203,0.719-0.305,1.289-0.305
		c0.518,0,0.904,0.061,1.156,0.183c0.254,0.123,0.434,0.278,0.535,0.468c0.104,0.188,0.156,0.534,0.156,1.039l-0.014,1.354
		c0,0.387,0.018,0.67,0.057,0.854c0.037,0.183,0.105,0.38,0.207,0.589h-1.146c-0.031-0.077-0.068-0.192-0.111-0.344
		c-0.021-0.068-0.035-0.113-0.043-0.136c-0.199,0.192-0.41,0.338-0.637,0.434c-0.225,0.097-0.467,0.145-0.723,0.145
		c-0.451,0-0.807-0.121-1.068-0.367c-0.26-0.245-0.391-0.555-0.391-0.93c0-0.248,0.061-0.47,0.18-0.663
		c0.117-0.194,0.283-0.343,0.496-0.446c0.213-0.103,0.521-0.193,0.924-0.271c0.543-0.102,0.92-0.196,1.129-0.285v-0.116
		c0-0.223-0.057-0.382-0.166-0.478c-0.109-0.095-0.318-0.143-0.625-0.143c-0.207,0-0.365,0.042-0.482,0.122
		C177.452,44.348,177.358,44.49,177.286,44.693z M178.841,45.636c-0.15,0.05-0.385,0.108-0.707,0.178
		c-0.322,0.068-0.533,0.137-0.633,0.202c-0.15,0.108-0.227,0.244-0.227,0.409c0,0.162,0.061,0.303,0.182,0.422
		c0.121,0.118,0.275,0.177,0.463,0.177c0.209,0,0.41-0.068,0.6-0.206c0.139-0.104,0.232-0.232,0.275-0.385
		c0.031-0.099,0.047-0.286,0.047-0.565V45.636z"/>
	<path fill="#213362" d="M181.124,47.743v-6.058h1.162v6.058H181.124z"/>
</g>
<g>
	<path fill="#213362" d="M86.702,56.205h-1.079V55.56c-0.179,0.25-0.39,0.438-0.634,0.561c-0.243,0.122-0.489,0.184-0.737,0.184
		c-0.504,0-0.937-0.203-1.295-0.609c-0.359-0.407-0.539-0.973-0.539-1.7c0-0.743,0.175-1.31,0.524-1.695
		c0.35-0.387,0.792-0.581,1.326-0.581c0.49,0,0.914,0.204,1.272,0.611v-2.182h1.161V56.205z M83.603,53.915
		c0,0.469,0.064,0.809,0.194,1.017c0.188,0.304,0.448,0.454,0.785,0.454c0.267,0,0.494-0.112,0.682-0.34s0.28-0.566,0.28-1.02
		c0-0.503-0.091-0.866-0.272-1.088c-0.182-0.223-0.414-0.333-0.698-0.333c-0.275,0-0.507,0.109-0.691,0.329
		C83.696,53.154,83.603,53.479,83.603,53.915z"/>
	<path fill="#213362" d="M90.387,54.808l1.156,0.194c-0.148,0.424-0.384,0.748-0.704,0.97c-0.32,0.221-0.723,0.332-1.204,0.332
		c-0.763,0-1.328-0.25-1.694-0.748c-0.289-0.398-0.434-0.903-0.434-1.512c0-0.728,0.189-1.297,0.569-1.709
		c0.381-0.411,0.862-0.617,1.442-0.617c0.653,0,1.168,0.215,1.546,0.646c0.377,0.431,0.558,1.091,0.541,1.98h-2.908
		c0.008,0.345,0.102,0.612,0.28,0.805c0.18,0.191,0.402,0.286,0.67,0.286c0.182,0,0.334-0.05,0.458-0.148
		S90.324,55.028,90.387,54.808z M90.453,53.635c-0.008-0.336-0.095-0.591-0.26-0.767c-0.165-0.175-0.366-0.263-0.603-0.263
		c-0.255,0-0.464,0.093-0.629,0.277s-0.246,0.436-0.243,0.752H90.453z"/>
	<path fill="#213362" d="M94.874,56.205v-6.058h1.224v6.058H94.874z"/>
	<path fill="#213362" d="M101.244,56.205h-1.161v-2.24c0-0.474-0.024-0.78-0.074-0.919c-0.049-0.14-0.13-0.248-0.241-0.324
		c-0.111-0.077-0.246-0.116-0.403-0.116c-0.2,0-0.382,0.057-0.541,0.165c-0.159,0.11-0.27,0.257-0.329,0.439
		c-0.06,0.181-0.088,0.517-0.088,1.008v1.987h-1.161v-4.389h1.078v0.645c0.383-0.495,0.865-0.743,1.445-0.743
		c0.257,0,0.491,0.045,0.703,0.138c0.211,0.093,0.372,0.21,0.481,0.354s0.186,0.307,0.229,0.488c0.041,0.182,0.063,0.441,0.063,0.78
		V56.205z"/>
	<path fill="#213362" d="M101.914,51.816h0.645v-0.33c0-0.369,0.039-0.645,0.117-0.827c0.08-0.182,0.223-0.329,0.434-0.443
		s0.479-0.172,0.801-0.172c0.33,0,0.654,0.049,0.971,0.148l-0.156,0.811c-0.186-0.045-0.363-0.066-0.533-0.066
		s-0.289,0.039-0.363,0.117c-0.072,0.079-0.107,0.23-0.107,0.452v0.311h0.867v0.913h-0.867v3.476h-1.162v-3.476h-0.645V51.816z"/>
	<path fill="#213362" d="M106.352,56.205h-1.162v-4.389h1.08v0.625c0.184-0.295,0.35-0.49,0.498-0.583
		c0.146-0.095,0.313-0.141,0.502-0.141c0.264,0,0.518,0.072,0.764,0.219l-0.359,1.012c-0.197-0.125-0.377-0.189-0.545-0.189
		c-0.164,0-0.301,0.046-0.414,0.134c-0.113,0.09-0.201,0.252-0.266,0.485c-0.064,0.234-0.098,0.725-0.098,1.472V56.205z"/>
	<path fill="#213362" d="M109.4,53.156l-1.053-0.19c0.117-0.425,0.32-0.738,0.611-0.942c0.289-0.204,0.719-0.306,1.289-0.306
		c0.518,0,0.902,0.062,1.156,0.184s0.432,0.278,0.535,0.467s0.154,0.535,0.154,1.038l-0.012,1.356c0,0.385,0.018,0.67,0.055,0.854
		c0.037,0.183,0.107,0.379,0.211,0.589h-1.15c-0.029-0.077-0.066-0.192-0.111-0.344c-0.018-0.068-0.033-0.114-0.041-0.137
		c-0.197,0.193-0.41,0.338-0.637,0.435s-0.467,0.145-0.723,0.145c-0.451,0-0.807-0.123-1.068-0.368
		c-0.26-0.245-0.391-0.556-0.391-0.93c0-0.247,0.061-0.469,0.178-0.663c0.119-0.193,0.285-0.342,0.498-0.445
		s0.521-0.194,0.924-0.271c0.543-0.102,0.918-0.196,1.127-0.285v-0.115c0-0.223-0.055-0.382-0.164-0.478
		c-0.109-0.095-0.318-0.143-0.625-0.143c-0.207,0-0.365,0.041-0.482,0.122C109.566,52.81,109.473,52.952,109.4,53.156z
		 M110.953,54.098c-0.146,0.049-0.383,0.108-0.705,0.177c-0.322,0.069-0.533,0.137-0.633,0.203c-0.15,0.107-0.229,0.244-0.229,0.409
		c0,0.162,0.063,0.303,0.184,0.422c0.121,0.117,0.275,0.177,0.463,0.177c0.209,0,0.408-0.069,0.6-0.205
		c0.139-0.105,0.23-0.234,0.275-0.386c0.031-0.1,0.045-0.286,0.045-0.565V54.098z"/>
	<path fill="#213362" d="M115.781,54.808l1.156,0.194c-0.148,0.424-0.385,0.748-0.705,0.97c-0.32,0.221-0.723,0.332-1.205,0.332
		c-0.764,0-1.326-0.25-1.693-0.748c-0.289-0.398-0.434-0.903-0.434-1.512c0-0.728,0.189-1.297,0.57-1.709
		c0.379-0.411,0.861-0.617,1.441-0.617c0.654,0,1.168,0.215,1.545,0.646c0.379,0.431,0.559,1.091,0.541,1.98h-2.908
		c0.008,0.345,0.104,0.612,0.281,0.805c0.178,0.191,0.402,0.286,0.67,0.286c0.182,0,0.334-0.05,0.459-0.148
		C115.623,55.188,115.717,55.028,115.781,54.808z M115.846,53.635c-0.008-0.336-0.096-0.591-0.262-0.767
		c-0.162-0.175-0.365-0.263-0.602-0.263c-0.254,0-0.463,0.093-0.627,0.277c-0.166,0.185-0.248,0.436-0.244,0.752H115.846z"/>
	<path fill="#213362" d="M117.535,54.952l1.166-0.178c0.049,0.227,0.15,0.397,0.303,0.515c0.15,0.117,0.361,0.176,0.635,0.176
		c0.299,0,0.527-0.055,0.678-0.165c0.102-0.077,0.152-0.181,0.152-0.31c0-0.089-0.027-0.162-0.082-0.22
		c-0.059-0.055-0.188-0.105-0.389-0.152c-0.936-0.207-1.529-0.396-1.781-0.566c-0.346-0.237-0.52-0.565-0.52-0.987
		c0-0.381,0.15-0.7,0.449-0.959c0.301-0.258,0.768-0.388,1.398-0.388c0.6,0,1.045,0.098,1.336,0.293
		c0.293,0.196,0.494,0.484,0.605,0.868l-1.096,0.202c-0.047-0.171-0.137-0.302-0.266-0.393c-0.133-0.091-0.318-0.137-0.561-0.137
		c-0.305,0-0.525,0.043-0.658,0.129c-0.088,0.061-0.131,0.139-0.131,0.235c0,0.082,0.039,0.152,0.115,0.211
		c0.104,0.076,0.467,0.186,1.086,0.325c0.617,0.142,1.049,0.313,1.295,0.518c0.242,0.206,0.363,0.493,0.363,0.862
		c0,0.403-0.168,0.748-0.506,1.038c-0.336,0.289-0.83,0.434-1.49,0.434c-0.598,0-1.07-0.121-1.42-0.364
		C117.871,55.697,117.645,55.368,117.535,54.952z"/>
	<path fill="#213362" d="M124.662,51.816v0.926h-0.793v1.769c0,0.357,0.008,0.566,0.023,0.625c0.016,0.06,0.049,0.108,0.104,0.147
		c0.053,0.039,0.119,0.058,0.195,0.058c0.107,0,0.264-0.037,0.467-0.111l0.1,0.9c-0.27,0.115-0.576,0.174-0.916,0.174
		c-0.211,0-0.398-0.035-0.568-0.105c-0.166-0.07-0.291-0.161-0.369-0.272s-0.133-0.263-0.162-0.452
		c-0.025-0.136-0.039-0.407-0.039-0.818v-1.913h-0.531v-0.926h0.531v-0.872l1.166-0.677v1.549H124.662z"/>
	<path fill="#213362" d="M126.58,56.205h-1.162v-4.389h1.08v0.625c0.184-0.295,0.35-0.49,0.498-0.583
		c0.146-0.095,0.313-0.141,0.502-0.141c0.262,0,0.518,0.072,0.764,0.219l-0.359,1.012c-0.195-0.125-0.377-0.189-0.545-0.189
		c-0.164,0-0.301,0.046-0.414,0.134c-0.113,0.09-0.203,0.252-0.268,0.485c-0.064,0.234-0.096,0.725-0.096,1.472V56.205z"/>
	<path fill="#213362" d="M131.65,56.205v-0.657c-0.16,0.233-0.371,0.419-0.633,0.554c-0.258,0.134-0.533,0.202-0.822,0.202
		c-0.295,0-0.561-0.064-0.793-0.194c-0.234-0.129-0.402-0.312-0.508-0.545s-0.158-0.559-0.158-0.972v-2.776h1.16v2.017
		c0,0.617,0.021,0.995,0.064,1.135c0.043,0.139,0.121,0.249,0.234,0.33c0.111,0.08,0.256,0.122,0.43,0.122
		c0.197,0,0.377-0.055,0.533-0.164c0.156-0.108,0.264-0.244,0.322-0.404c0.057-0.162,0.086-0.556,0.086-1.184v-1.852h1.16v4.389
		H131.65z"/>
	<path fill="#213362" d="M137.756,53.114l-1.145,0.207c-0.039-0.229-0.125-0.401-0.262-0.517c-0.137-0.116-0.314-0.174-0.533-0.174
		c-0.287,0-0.52,0.099-0.689,0.299c-0.174,0.2-0.26,0.534-0.26,1.003c0,0.521,0.088,0.888,0.262,1.103
		c0.176,0.215,0.41,0.323,0.705,0.323c0.221,0,0.4-0.063,0.541-0.188c0.141-0.126,0.24-0.342,0.297-0.647l1.143,0.194
		c-0.119,0.523-0.346,0.92-0.682,1.187c-0.338,0.267-0.787,0.4-1.352,0.4c-0.643,0-1.152-0.202-1.535-0.607
		s-0.572-0.966-0.572-1.683c0-0.724,0.191-1.287,0.574-1.69c0.383-0.404,0.9-0.605,1.553-0.605c0.535,0,0.959,0.114,1.275,0.345
		C137.391,52.292,137.617,52.644,137.756,53.114z"/>
	<path fill="#213362" d="M140.648,51.816v0.926h-0.793v1.769c0,0.357,0.006,0.566,0.021,0.625c0.016,0.06,0.049,0.108,0.104,0.147
		s0.119,0.058,0.197,0.058c0.107,0,0.262-0.037,0.465-0.111l0.1,0.9c-0.27,0.115-0.574,0.174-0.916,0.174
		c-0.211,0-0.398-0.035-0.566-0.105s-0.293-0.161-0.369-0.272c-0.078-0.111-0.133-0.263-0.164-0.452
		c-0.025-0.136-0.037-0.407-0.037-0.818v-1.913h-0.533v-0.926h0.533v-0.872l1.166-0.677v1.549H140.648z"/>
	<path fill="#213362" d="M144.342,56.205v-0.657c-0.16,0.233-0.369,0.419-0.631,0.554c-0.258,0.134-0.535,0.202-0.824,0.202
		c-0.295,0-0.559-0.064-0.793-0.194c-0.234-0.129-0.404-0.312-0.508-0.545c-0.105-0.233-0.156-0.559-0.156-0.972v-2.776h1.16v2.017
		c0,0.617,0.021,0.995,0.063,1.135c0.043,0.139,0.121,0.249,0.234,0.33c0.113,0.08,0.258,0.122,0.43,0.122
		c0.199,0,0.377-0.055,0.533-0.164c0.158-0.108,0.264-0.244,0.322-0.404c0.059-0.162,0.086-0.556,0.086-1.184v-1.852h1.162v4.389
		H144.342z"/>
	<path fill="#213362" d="M147.732,56.205h-1.16v-4.389h1.078v0.625c0.186-0.295,0.352-0.49,0.498-0.583
		c0.146-0.095,0.314-0.141,0.504-0.141c0.264,0,0.518,0.072,0.764,0.219l-0.361,1.012c-0.195-0.125-0.377-0.189-0.545-0.189
		c-0.162,0-0.299,0.046-0.412,0.134c-0.113,0.09-0.203,0.252-0.268,0.485c-0.064,0.234-0.098,0.725-0.098,1.472V56.205z"/>
	<path fill="#213362" d="M150.783,53.156l-1.055-0.19c0.119-0.425,0.322-0.738,0.613-0.942c0.289-0.204,0.717-0.306,1.287-0.306
		c0.518,0,0.904,0.062,1.158,0.184c0.252,0.122,0.432,0.278,0.533,0.467c0.105,0.188,0.156,0.535,0.156,1.038l-0.014,1.356
		c0,0.385,0.02,0.67,0.057,0.854c0.037,0.183,0.107,0.379,0.209,0.589h-1.148c-0.031-0.077-0.068-0.192-0.111-0.344
		c-0.02-0.068-0.033-0.114-0.043-0.137c-0.197,0.193-0.41,0.338-0.635,0.435c-0.227,0.097-0.467,0.145-0.723,0.145
		c-0.451,0-0.809-0.123-1.068-0.368c-0.262-0.245-0.391-0.556-0.391-0.93c0-0.247,0.059-0.469,0.178-0.663
		c0.117-0.193,0.285-0.342,0.498-0.445s0.521-0.194,0.924-0.271c0.541-0.102,0.918-0.196,1.129-0.285v-0.115
		c0-0.223-0.057-0.382-0.168-0.478c-0.109-0.095-0.316-0.143-0.623-0.143c-0.207,0-0.367,0.041-0.482,0.122
		C150.949,52.81,150.854,52.952,150.783,53.156z M152.338,54.098c-0.15,0.049-0.387,0.108-0.709,0.177
		c-0.322,0.069-0.533,0.137-0.633,0.203c-0.148,0.107-0.227,0.244-0.227,0.409c0,0.162,0.061,0.303,0.184,0.422
		c0.119,0.117,0.273,0.177,0.461,0.177c0.211,0,0.41-0.069,0.6-0.205c0.141-0.105,0.232-0.234,0.277-0.386
		c0.029-0.1,0.047-0.286,0.047-0.565V54.098z"/>
	<path fill="#213362" d="M156.984,56.205v-6.058h2.574c0.646,0,1.117,0.054,1.412,0.163c0.291,0.108,0.525,0.302,0.701,0.581
		c0.178,0.277,0.266,0.596,0.266,0.954c0,0.454-0.133,0.83-0.4,1.126s-0.666,0.482-1.197,0.56c0.264,0.154,0.48,0.323,0.654,0.509
		c0.172,0.184,0.404,0.512,0.697,0.983l0.738,1.182h-1.463l-0.885-1.318c-0.313-0.471-0.527-0.769-0.645-0.89
		c-0.115-0.123-0.238-0.207-0.367-0.253s-0.334-0.068-0.615-0.068h-0.248v2.529H156.984z M158.207,52.709h0.904
		c0.588,0,0.953-0.025,1.1-0.074c0.146-0.05,0.26-0.136,0.342-0.256c0.084-0.121,0.125-0.273,0.125-0.455
		c0-0.204-0.053-0.368-0.162-0.493c-0.111-0.126-0.264-0.204-0.461-0.238c-0.1-0.014-0.398-0.021-0.893-0.021h-0.955V52.709z"/>
	<path fill="#213362" d="M165.623,54.808l1.156,0.194c-0.148,0.424-0.383,0.748-0.703,0.97c-0.32,0.221-0.725,0.332-1.205,0.332
		c-0.762,0-1.328-0.25-1.693-0.748c-0.291-0.398-0.436-0.903-0.436-1.512c0-0.728,0.191-1.297,0.572-1.709
		c0.379-0.411,0.859-0.617,1.441-0.617c0.652,0,1.168,0.215,1.545,0.646c0.377,0.431,0.557,1.091,0.541,1.98h-2.908
		c0.01,0.345,0.102,0.612,0.281,0.805c0.18,0.191,0.402,0.286,0.668,0.286c0.184,0,0.336-0.05,0.459-0.148
		C165.467,55.188,165.559,55.028,165.623,54.808z M165.689,53.635c-0.008-0.336-0.094-0.591-0.26-0.767
		c-0.166-0.175-0.367-0.263-0.604-0.263c-0.254,0-0.463,0.093-0.629,0.277s-0.246,0.436-0.244,0.752H165.689z"/>
	<path fill="#213362" d="M167.682,56.493l1.326,0.161c0.021,0.155,0.072,0.261,0.152,0.319c0.109,0.082,0.283,0.124,0.521,0.124
		c0.303,0,0.529-0.046,0.68-0.137c0.102-0.061,0.18-0.159,0.232-0.294c0.035-0.097,0.055-0.274,0.055-0.533v-0.64
		c-0.35,0.474-0.787,0.711-1.314,0.711c-0.59,0-1.057-0.25-1.4-0.748c-0.271-0.395-0.406-0.885-0.406-1.472
		c0-0.734,0.178-1.297,0.531-1.686c0.354-0.388,0.795-0.582,1.32-0.582c0.543,0,0.992,0.237,1.342,0.715v-0.616h1.088v3.938
		c0,0.517-0.043,0.904-0.129,1.16c-0.084,0.257-0.203,0.457-0.359,0.604c-0.154,0.146-0.359,0.261-0.617,0.342
		c-0.258,0.084-0.584,0.124-0.977,0.124c-0.744,0-1.271-0.127-1.582-0.382c-0.313-0.254-0.469-0.577-0.469-0.969
		C167.676,56.596,167.678,56.548,167.682,56.493z M168.719,53.92c0,0.465,0.09,0.806,0.271,1.022c0.18,0.217,0.4,0.324,0.666,0.324
		c0.283,0,0.523-0.111,0.719-0.333s0.293-0.55,0.293-0.985c0-0.454-0.094-0.792-0.281-1.012c-0.186-0.221-0.424-0.331-0.711-0.331
		c-0.277,0-0.506,0.108-0.686,0.324C168.809,53.146,168.719,53.477,168.719,53.92z"/>
	<path fill="#213362" d="M172.957,51.221v-1.073h1.16v1.073H172.957z M172.957,56.205v-4.389h1.16v4.389H172.957z"/>
	<path fill="#213362" d="M175.039,53.948c0-0.386,0.096-0.759,0.285-1.119s0.459-0.636,0.809-0.827
		c0.348-0.189,0.736-0.284,1.168-0.284c0.662,0,1.207,0.215,1.631,0.646c0.424,0.431,0.635,0.976,0.635,1.634
		c0,0.664-0.213,1.215-0.641,1.65c-0.428,0.438-0.967,0.655-1.619,0.655c-0.402,0-0.785-0.091-1.15-0.272
		c-0.365-0.183-0.643-0.449-0.832-0.8C175.135,54.88,175.039,54.453,175.039,53.948z M176.229,54.011c0,0.435,0.104,0.769,0.311,1
		c0.207,0.23,0.463,0.348,0.764,0.348c0.303,0,0.557-0.117,0.762-0.348c0.207-0.231,0.309-0.567,0.309-1.009
		c0-0.429-0.102-0.76-0.309-0.99c-0.205-0.232-0.459-0.349-0.762-0.349c-0.301,0-0.557,0.116-0.764,0.349
		C176.332,53.242,176.229,53.575,176.229,54.011z"/>
	<path fill="#213362" d="M184.467,56.205h-1.16v-2.24c0-0.474-0.023-0.78-0.074-0.919c-0.051-0.14-0.131-0.248-0.242-0.324
		c-0.111-0.077-0.246-0.116-0.402-0.116c-0.201,0-0.383,0.057-0.541,0.165c-0.16,0.11-0.27,0.257-0.328,0.439
		c-0.061,0.181-0.09,0.517-0.09,1.008v1.987h-1.162v-4.389h1.08v0.645c0.383-0.495,0.865-0.743,1.445-0.743
		c0.256,0,0.49,0.045,0.701,0.138c0.213,0.093,0.373,0.21,0.482,0.354s0.184,0.307,0.227,0.488c0.045,0.182,0.064,0.441,0.064,0.78
		V56.205z"/>
	<path fill="#213362" d="M186.514,53.156l-1.055-0.19c0.119-0.425,0.322-0.738,0.611-0.942c0.291-0.204,0.719-0.306,1.289-0.306
		c0.52,0,0.902,0.062,1.156,0.184c0.256,0.122,0.432,0.278,0.537,0.467c0.102,0.188,0.152,0.535,0.152,1.038l-0.012,1.356
		c0,0.385,0.018,0.67,0.057,0.854c0.037,0.183,0.107,0.379,0.209,0.589h-1.148c-0.031-0.077-0.068-0.192-0.113-0.344
		c-0.018-0.068-0.031-0.114-0.041-0.137c-0.197,0.193-0.41,0.338-0.635,0.435c-0.227,0.097-0.469,0.145-0.725,0.145
		c-0.449,0-0.807-0.123-1.066-0.368c-0.262-0.245-0.391-0.556-0.391-0.93c0-0.247,0.059-0.469,0.176-0.663
		c0.119-0.193,0.285-0.342,0.498-0.445c0.215-0.104,0.521-0.194,0.924-0.271c0.543-0.102,0.92-0.196,1.129-0.285v-0.115
		c0-0.223-0.057-0.382-0.166-0.478c-0.111-0.095-0.318-0.143-0.623-0.143c-0.207,0-0.367,0.041-0.484,0.122
		C186.678,52.81,186.584,52.952,186.514,53.156z M188.066,54.098c-0.148,0.049-0.385,0.108-0.707,0.177
		c-0.322,0.069-0.533,0.137-0.631,0.203c-0.152,0.107-0.229,0.244-0.229,0.409c0,0.162,0.061,0.303,0.182,0.422
		c0.121,0.117,0.275,0.177,0.463,0.177c0.209,0,0.408-0.069,0.6-0.205c0.141-0.105,0.232-0.234,0.277-0.386
		c0.029-0.1,0.045-0.286,0.045-0.565V54.098z"/>
	<path fill="#213362" d="M190.352,56.205v-6.058h1.16v6.058H190.352z"/>
</g>
<g>
	<path fill="#213362" d="M82.418,63.08l0.793-3.786h0.775l-0.656,3.153h1.926l-0.133,0.633H82.418z"/>
	<path fill="#213362" d="M88.293,61.938h-1.859c-0.002,0.029-0.004,0.052-0.004,0.067c0,0.182,0.053,0.329,0.156,0.441
		c0.105,0.112,0.23,0.168,0.381,0.168c0.248,0,0.439-0.128,0.576-0.383l0.664,0.111c-0.129,0.268-0.303,0.467-0.518,0.6
		c-0.215,0.134-0.459,0.201-0.727,0.201c-0.369,0-0.668-0.117-0.898-0.352c-0.23-0.232-0.346-0.541-0.346-0.925
		c0-0.375,0.104-0.709,0.311-1.002c0.285-0.396,0.689-0.594,1.217-0.594c0.336,0,0.604,0.104,0.801,0.311
		c0.197,0.208,0.297,0.498,0.297,0.872C88.344,61.635,88.328,61.796,88.293,61.938z M87.668,61.486
		c0.002-0.032,0.002-0.058,0.002-0.075c0-0.202-0.045-0.355-0.137-0.457s-0.213-0.152-0.367-0.152c-0.152,0-0.289,0.058-0.412,0.173
		c-0.121,0.115-0.203,0.285-0.246,0.512H87.668z"/>
	<path fill="#213362" d="M88.793,60.337h0.74l0.186,1.367c0.047,0.351,0.072,0.597,0.076,0.737c0.098-0.28,0.229-0.576,0.398-0.889
		l0.656-1.216h0.783l-1.693,3.011c-0.139,0.249-0.25,0.425-0.33,0.524c-0.08,0.099-0.176,0.179-0.287,0.235
		c-0.113,0.056-0.248,0.085-0.408,0.085c-0.156,0-0.332-0.027-0.529-0.082l0.064-0.554c0.09,0.026,0.178,0.039,0.262,0.039
		c0.227,0,0.414-0.172,0.561-0.516L88.793,60.337z"/>
	<path fill="#213362" d="M94.16,60.474l-0.727-0.108c0.059-0.352,0.195-0.62,0.408-0.806c0.217-0.188,0.484-0.281,0.807-0.281
		c0.352,0,0.629,0.096,0.83,0.287c0.203,0.19,0.303,0.434,0.303,0.728c0,0.15-0.031,0.3-0.094,0.451
		c-0.061,0.15-0.164,0.309-0.305,0.474c-0.102,0.116-0.268,0.282-0.498,0.497c-0.232,0.215-0.383,0.361-0.459,0.438
		c-0.074,0.079-0.146,0.161-0.215,0.25h1.313l-0.141,0.677h-2.301c0.025-0.187,0.08-0.363,0.164-0.531
		c0.086-0.168,0.191-0.324,0.318-0.469c0.129-0.145,0.361-0.378,0.701-0.7c0.254-0.244,0.414-0.403,0.482-0.477
		c0.121-0.135,0.203-0.251,0.248-0.349c0.045-0.1,0.066-0.188,0.066-0.267c0-0.127-0.037-0.23-0.111-0.31
		c-0.076-0.08-0.17-0.119-0.285-0.119c-0.117,0-0.221,0.044-0.309,0.134C94.27,60.081,94.203,60.242,94.16,60.474z"/>
	<path fill="#213362" d="M97.338,62.308h-1.49l0.129-0.62l2.049-2.394h0.641l-0.498,2.383h0.459l-0.133,0.631h-0.459l-0.162,0.772
		h-0.699L97.338,62.308z M97.471,61.677l0.244-1.179l-0.998,1.179H97.471z"/>
	<path fill="#213362" d="M99.027,62.364h0.732l-0.148,0.716h-0.734L99.027,62.364z"/>
	<path fill="#213362" d="M101.25,60.996c-0.133-0.088-0.23-0.189-0.299-0.304c-0.066-0.114-0.1-0.242-0.1-0.382
		c0-0.161,0.047-0.325,0.141-0.492c0.092-0.168,0.23-0.299,0.418-0.396c0.184-0.097,0.393-0.145,0.627-0.145
		c0.338,0,0.602,0.088,0.791,0.264c0.189,0.175,0.283,0.397,0.283,0.666c0,0.189-0.053,0.354-0.16,0.494
		c-0.105,0.14-0.266,0.258-0.479,0.351c0.154,0.094,0.27,0.209,0.346,0.345c0.078,0.135,0.115,0.289,0.115,0.464
		c0,0.285-0.092,0.545-0.273,0.779c-0.266,0.338-0.627,0.506-1.088,0.506c-0.334,0-0.602-0.099-0.805-0.296
		s-0.305-0.447-0.305-0.753c0-0.253,0.07-0.479,0.211-0.679C100.816,61.219,101.008,61.078,101.25,60.996z M101.201,62.111
		c0,0.141,0.039,0.252,0.117,0.332c0.076,0.082,0.176,0.122,0.303,0.122c0.189,0,0.336-0.084,0.439-0.253
		c0.105-0.169,0.158-0.353,0.158-0.55c0-0.127-0.041-0.231-0.119-0.313c-0.082-0.083-0.184-0.123-0.309-0.123
		c-0.154,0-0.291,0.071-0.41,0.214C101.26,61.684,101.201,61.874,101.201,62.111z M101.531,60.36c0,0.118,0.037,0.216,0.109,0.288
		c0.07,0.073,0.166,0.109,0.281,0.109c0.133,0,0.25-0.051,0.35-0.15c0.1-0.102,0.15-0.219,0.15-0.353
		c0-0.123-0.037-0.222-0.109-0.298c-0.074-0.075-0.17-0.113-0.285-0.113c-0.135,0-0.252,0.05-0.35,0.15
		C101.58,60.094,101.531,60.216,101.531,60.36z"/>
	<path fill="#213362" d="M103.391,61.995l0.721-0.064c-0.002,0.034-0.002,0.061-0.002,0.077c0,0.176,0.039,0.307,0.117,0.396
		c0.078,0.088,0.18,0.131,0.305,0.131c0.178,0,0.336-0.083,0.479-0.252c0.145-0.167,0.217-0.4,0.217-0.695
		c0-0.176-0.039-0.308-0.121-0.397s-0.189-0.135-0.322-0.135c-0.098,0-0.189,0.022-0.281,0.067
		c-0.088,0.045-0.178,0.112-0.262,0.204l-0.609-0.046l0.576-1.935h1.902l-0.139,0.676h-1.258l-0.172,0.585
		c0.072-0.033,0.145-0.058,0.217-0.075c0.072-0.015,0.143-0.023,0.213-0.023c0.289,0,0.527,0.097,0.713,0.292
		c0.186,0.194,0.281,0.454,0.281,0.782c0,0.261-0.068,0.52-0.197,0.772c-0.129,0.254-0.309,0.449-0.541,0.585
		c-0.23,0.137-0.473,0.205-0.725,0.205c-0.322,0-0.588-0.105-0.795-0.313C103.5,62.623,103.395,62.345,103.391,61.995z"/>
	<path fill="#213362" d="M106.332,61.995l0.721-0.064c-0.002,0.034-0.002,0.061-0.002,0.077c0,0.176,0.039,0.307,0.115,0.396
		c0.08,0.088,0.182,0.131,0.309,0.131c0.174,0,0.334-0.083,0.479-0.252c0.143-0.167,0.215-0.4,0.215-0.695
		c0-0.176-0.041-0.308-0.121-0.397c-0.082-0.09-0.189-0.135-0.324-0.135c-0.096,0-0.189,0.022-0.279,0.067s-0.178,0.112-0.262,0.204
		l-0.609-0.046l0.576-1.935h1.902l-0.139,0.676h-1.258l-0.174,0.585c0.072-0.033,0.146-0.058,0.217-0.075
		c0.072-0.015,0.143-0.023,0.215-0.023c0.289,0,0.527,0.097,0.713,0.292c0.186,0.194,0.279,0.454,0.279,0.782
		c0,0.261-0.066,0.52-0.195,0.772c-0.131,0.254-0.311,0.449-0.541,0.585c-0.23,0.137-0.473,0.205-0.727,0.205
		c-0.32,0-0.586-0.105-0.793-0.313C106.441,62.623,106.336,62.345,106.332,61.995z"/>
</g>
</svg>
